# xmcd
#
# Track frame offsets:
#	150
#	5773
#	35052
#	63776
#	92152
#	121569
#	150673
#	178067
#	205464
#
# Disc length: 3093 seconds
#
# Revision: 1
# Processed by: cddbd v1.5.2PL0 Copyright (c) Steve Scherf et al.
# Submitted via: EZCDAudioConverter 8.0.2.1
#
DISCID=720c1309
DTITLE=Út Trà Ôn, Minh Cảnh, Út Bạch Lan - Ca Cổ. Tình Anh Bán Chiếu
DYEAR=2008
DGENRE=Contemporary Folk
TTITLE0=Various Artist - Lời giới thiệu
TTITLE1=Út Trà Ôn - Tình anh bán chiếu
TTITLE2=Minh Cảnh - Võ đông sơ
TTITLE3=Út Bạch Lan - Tình Lan và Điệp
TTITLE4=Út Trà Ôn - Ông lão chèo đò
TTITLE5=Minh Cảnh - Trên đường lưu diễn
TTITLE6=Út Trà Ôn and Út Bạch Lan - Gánh chè khuya
TTITLE7=Minh Cảnh - Cây trứng cá sau vườn
TTITLE8=Minh Cảnh - Trống loạn Thăng Long Thành
EXTD=
EXTT0=
EXTT1=
EXTT2=
EXTT3=
EXTT4=
EXTT5=
EXTT6=
EXTT7=
EXTT8=
PLAYORDER=
